<svg width="92" height="112" viewBox="0 0 92 112" fill="none" xmlns="http://www.w3.org/2000/svg">
<path d="M66.3226 0.798157C61.1419 1.39642 53.8099 5.96617 50.1694 10.8541C48.0691 13.6545 46.8344 16.3276 45.7651 20.35L45.2305 22.3612L45.256 24.4997C45.2814 25.6708 45.3451 26.7655 45.4087 26.9437C45.5742 27.3638 45.8924 27.4274 48.1327 27.4401C49.9912 27.4529 50.1057 27.4401 51.6969 26.9692C55.9484 25.7344 59.067 23.876 61.2819 21.2411C61.8165 20.5919 62.6184 19.7263 63.0385 19.2935C64.4387 17.9188 66.2335 14.8638 67.2264 12.2161C68.2192 9.55577 68.6647 7.08632 68.792 3.5731L68.8684 1.32005L68.5375 0.989094C68.1683 0.61995 67.9646 0.607221 66.3226 0.798157Z" fill="#717171"/>
<path d="M65.1388 27.1092C62.6184 27.2365 55.8338 29.1204 50.9586 31.0298C48.0054 32.1881 48.0054 32.1881 47.4199 32.2899C46.4016 32.4554 43.9067 31.7299 39.617 29.9987C37.3384 29.0949 34.9963 28.4076 31.534 27.6184C30.0829 27.3001 27.6771 27.262 26.6333 27.5547C26.2132 27.6693 24.8894 27.9366 23.6929 28.1403C21.1216 28.5985 19.6705 29.044 17.7357 29.9987C11.893 32.85 7.9088 36.9488 4.75198 43.3642C3.35179 46.1901 2.32073 48.9523 1.55698 51.8927C0.424095 56.2588 0.398637 64.6346 1.50607 69.7135C1.63336 70.3372 1.74792 71.0755 1.74792 71.3682C1.74792 71.9792 1.86248 72.4375 2.93173 76.6508C3.92459 80.5459 3.82276 80.2277 5.7194 84.9884C8.37977 91.6711 9.21989 93.1477 14.6552 100.645C16.8828 103.713 18.0157 105.113 19.6577 106.781C21.3762 108.537 22.7636 109.555 24.7239 110.523C26.9388 111.605 27.9062 111.847 29.9428 111.834C32.5523 111.834 34.6526 111.299 38.6495 109.619C41.1699 108.563 41.3354 108.512 45.9179 107.57C47.2926 107.277 48.5655 107.302 50.5003 107.621C51.1622 107.723 52.1551 107.875 52.6897 107.952C53.7717 108.104 54.8664 108.461 57.6923 109.594C61.1036 110.968 63.5094 111.579 66.0298 111.732C69.6958 111.961 73.2345 110.332 77.015 106.704C80.8719 102.975 84.4743 97.8702 88.1148 90.9838C89.0949 89.1253 90.6606 85.3193 90.9279 84.1737C91.0425 83.7155 91.2334 83.1426 91.3734 82.9135C91.5007 82.6844 91.6153 82.3662 91.6153 82.2261C91.6153 81.7679 90.686 81.0423 89.044 80.215C85.9508 78.6238 82.9086 75.8998 80.8592 72.8321C79.3953 70.63 77.9188 67.3331 77.5496 65.3856C76.9259 62.1778 76.7477 58.6646 77.1041 56.2206C77.1932 55.5842 77.5114 54.2476 77.8169 53.2293C79.128 48.8123 80.0318 47.043 82.0812 44.8536C82.7049 44.2044 83.2141 43.6061 83.2141 43.5552C83.2141 43.3388 86.3327 40.7293 87.0964 40.3093C87.5165 40.0674 88.0511 39.6983 88.2802 39.4691C88.9803 38.7818 88.8785 38.5145 87.1219 36.4524C84.767 33.6901 81.8011 31.4244 78.3134 29.7314C76.1367 28.6749 74.6347 28.153 72.5344 27.7202C70.3831 27.262 67.1754 26.9946 65.1388 27.1092Z" fill="#717171"/>
</svg>
